<svg width="18" height="20" viewBox="0 0 18 20" fill="none" xmlns="http://www.w3.org/2000/svg">
<path d="M9.00004 2.61193C11.37 2.61193 11.6931 2.61193 12.6626 2.61193C13.5244 2.61193 13.9553 2.83297 14.2785 2.9435C14.7094 3.16454 15.0326 3.27506 15.3557 3.60663C15.6789 3.93819 15.8944 4.26976 16.0021 4.71185C16.1098 5.04341 16.2175 5.4855 16.3253 6.36967C16.3253 7.36437 16.3253 7.58541 16.3253 10.1274C16.3253 12.6694 16.3253 12.8905 16.3253 13.8852C16.3253 14.7693 16.1098 15.2114 16.0021 15.543C15.7866 15.9851 15.6789 16.3166 15.3557 16.6482C15.0326 16.9798 14.7094 17.2008 14.2785 17.3113C13.9553 17.4219 13.5244 17.5324 12.6626 17.6429C11.6931 17.6429 11.4777 17.6429 9.00004 17.6429C6.52239 17.6429 6.30694 17.6429 5.33743 17.6429C4.47564 17.6429 4.04474 17.4219 3.72157 17.3113C3.29068 17.0903 2.9675 16.9798 2.64433 16.6482C2.32116 16.3166 2.10571 15.9851 1.99799 15.543C1.89027 15.2114 1.78254 14.7693 1.67482 13.8852C1.67482 12.8905 1.67482 12.6694 1.67482 10.1274C1.67482 7.58541 1.67482 7.36437 1.67482 6.36967C1.67482 5.4855 1.89027 5.04341 1.99799 4.71185C2.21344 4.26976 2.32116 3.93819 2.64433 3.60663C2.9675 3.27506 3.29068 3.05402 3.72157 2.9435C4.04474 2.83297 4.47564 2.72245 5.33743 2.61193C6.30694 2.61193 6.63012 2.61193 9.00004 2.61193ZM9.00004 0.954102C6.52239 0.954102 6.30694 0.954102 5.33743 0.954102C4.36791 0.954102 3.72157 1.17515 3.18295 1.39619C2.64433 1.61723 2.10571 1.9488 1.56709 2.50141C1.02848 3.05402 0.813028 3.49611 0.489856 4.15924C0.274408 4.71185 0.166684 5.37498 0.05896 6.36967C0.05896 7.36437 0.05896 7.69594 0.05896 10.1274C0.05896 12.6694 0.05896 12.8905 0.05896 13.8852C0.05896 14.8799 0.274408 15.543 0.489856 16.0956C0.705304 16.6482 1.02848 17.2008 1.56709 17.7534C2.10571 18.306 2.53661 18.5271 3.18295 18.8586C3.72157 19.0797 4.36791 19.1902 5.33743 19.3007C6.30694 19.3007 6.63012 19.3007 9.00004 19.3007C11.37 19.3007 11.6931 19.3007 12.6626 19.3007C13.6322 19.3007 14.2785 19.0797 14.8171 18.8586C15.3557 18.6376 15.8944 18.306 16.433 17.7534C16.9716 17.2008 17.1871 16.7587 17.5102 16.0956C17.7257 15.543 17.8334 14.8799 17.9411 13.8852C17.9411 12.8905 17.9411 12.5589 17.9411 10.1274C17.9411 7.69594 17.9411 7.36437 17.9411 6.36967C17.9411 5.37498 17.7257 4.71185 17.5102 4.15924C17.2948 3.60663 16.9716 3.05402 16.433 2.50141C15.8944 1.9488 15.4635 1.72776 14.8171 1.39619C14.2785 1.17515 13.6322 1.06462 12.6626 0.954102C11.6931 0.954102 11.4777 0.954102 9.00004 0.954102Z" fill="#020202"/>
<path d="M9.00004 5.37498C6.41467 5.37498 4.36791 7.47489 4.36791 10.1274C4.36791 12.7799 6.41467 14.8799 9.00004 14.8799C11.5854 14.8799 13.6322 12.7799 13.6322 10.1274C13.6322 7.47489 11.5854 5.37498 9.00004 5.37498ZM9.00004 13.222C7.38418 13.222 5.98377 11.8958 5.98377 10.1274C5.98377 8.46959 7.27646 7.0328 9.00004 7.0328C10.6159 7.0328 12.0163 8.35907 12.0163 10.1274C12.0163 11.7852 10.6159 13.222 9.00004 13.222Z" fill="#020202"/>
<path d="M13.7399 6.36967C14.3348 6.36967 14.8171 5.87485 14.8171 5.26446C14.8171 4.65406 14.3348 4.15924 13.7399 4.15924C13.1449 4.15924 12.6626 4.65406 12.6626 5.26446C12.6626 5.87485 13.1449 6.36967 13.7399 6.36967Z" fill="#020202"/>
</svg>
