<svg width="21" height="21" viewBox="0 0 21 21" fill="none" xmlns="http://www.w3.org/2000/svg">
<g clip-path="url(#clip0_32_1546)">
<path fill-rule="evenodd" clip-rule="evenodd" d="M14.8396 8.63514V13.0382C14.8396 15.9629 13.0985 19.2107 8.79737 19.2107C5.48088 19.1962 2.76001 16.4628 2.76001 13.1463C2.76001 13.095 2.7607 13.0437 2.76209 12.9883C2.85916 9.78755 5.51902 7.20814 8.7211 7.20814C9.01718 7.20814 9.31325 7.23033 9.60656 7.27401C9.97336 7.32948 10.2452 7.64497 10.2452 8.01594V10.8741C10.2452 11.1071 10.137 11.3262 9.95256 11.4683C9.76812 11.6105 9.5289 11.6583 9.30355 11.5994C9.15932 11.5612 9.01024 11.5418 8.86047 11.5418C7.93341 11.5418 7.16166 12.2831 7.12422 13.2094L7.12006 13.3232C7.12006 14.1448 7.79611 14.8216 8.61778 14.8216L8.94992 14.8223C9.76743 14.8223 10.44 14.1497 10.44 13.3315L10.4324 13.1463V1.8191C10.4324 1.40514 10.7687 1.06885 11.1826 1.06885H14.0096C14.3778 1.06885 14.6919 1.3365 14.7501 1.69983C14.9533 2.96458 15.3388 3.75851 15.9171 4.25498C16.5003 4.75561 17.2547 4.94837 18.1082 5.08497C18.4723 5.14322 18.7399 5.45732 18.7399 5.82551V8.69269C18.7399 8.90209 18.6519 9.10248 18.4979 9.24394C18.344 9.38608 18.1374 9.4575 17.9286 9.44017C16.8567 9.3521 15.8117 9.07891 14.8396 8.63514ZM13.3918 2.56935H11.9329V13.12C11.9377 13.19 11.9405 13.2608 11.9405 13.3315C11.9405 14.972 10.5905 16.3221 8.94992 16.3221C8.89237 16.3221 8.83481 16.3207 8.77726 16.3165C8.72457 16.32 8.67117 16.3214 8.61778 16.3214C6.97306 16.3214 5.62025 14.9679 5.62025 13.3232C5.62025 13.2594 5.62233 13.1949 5.6251 13.1484C5.69375 11.4621 7.07013 10.1037 8.74467 10.0441V8.70864L8.7211 8.70794C6.32474 8.70794 4.33401 10.639 4.2612 13.0305C4.26051 13.0687 4.25982 13.1075 4.25982 13.1463C4.25982 15.6426 6.30809 17.6998 8.80084 17.7102C12.0431 17.7102 13.3391 15.2445 13.3391 13.0382V7.37524C13.3391 7.10135 13.4889 6.84896 13.7295 6.71722C13.9701 6.58547 14.2627 6.59587 14.4936 6.74357C15.3333 7.28094 16.2659 7.65121 17.2394 7.83566V6.44679C16.3546 6.25126 15.578 5.94131 14.9401 5.39353C14.2509 4.80138 13.7038 3.9284 13.3918 2.56935Z" fill="#020202"/>
</g>
<defs>
<clipPath id="clip0_32_1546">
<rect width="20" height="20" fill="white" transform="translate(0.75 0.127441)"/>
</clipPath>
</defs>
</svg>
